<svg width="21" height="21" viewBox="0 0 21 21" fill="none" xmlns="http://www.w3.org/2000/svg">
<path d="M7.38164 20.7034C8.20955 20.7034 8.88071 20.0394 8.88071 19.2203C8.88071 18.4011 8.20955 17.7371 7.38164 17.7371C6.55372 17.7371 5.88257 18.4011 5.88257 19.2203C5.88257 20.0394 6.55372 20.7034 7.38164 20.7034Z" fill="#2A5275"/>
<path d="M16.4893 20.7034C17.3173 20.7034 17.9884 20.0394 17.9884 19.2203C17.9884 18.4011 17.3173 17.7371 16.4893 17.7371C15.6614 17.7371 14.9903 18.4011 14.9903 19.2203C14.9903 20.0394 15.6614 20.7034 16.4893 20.7034Z" fill="#2A5275"/>
<path d="M20.5402 3.13853C20.4782 3.06292 20.4 3.00183 20.3113 2.95966C20.2226 2.91749 20.1256 2.89529 20.0272 2.89464H18.0661C17.6174 2.89464 17.2998 3.33323 17.4398 3.75953C17.5287 4.03009 17.7813 4.21298 18.0661 4.21298H19.1544L17.3755 11.1455H7.38164L4.33685 2.58484C4.30392 2.48363 4.24673 2.3918 4.17016 2.31719C4.09359 2.24259 3.99992 2.18741 3.89713 2.15638L1.16548 1.32583C1.08149 1.30029 0.993233 1.29137 0.905756 1.29958C0.818278 1.30779 0.733291 1.33297 0.655647 1.37367C0.498839 1.45588 0.38146 1.59634 0.329333 1.76417C0.277206 1.932 0.294601 2.11344 0.377691 2.26858C0.46078 2.42372 0.602759 2.53985 0.772393 2.59143L3.16425 3.31651L6.22236 11.8969L5.1297 12.7802L5.04308 12.8659C4.77281 13.174 4.61961 13.5658 4.60988 13.9737C4.60016 14.3816 4.7345 14.78 4.98978 15.1005C5.17138 15.319 5.40213 15.4924 5.66359 15.6068C5.92505 15.7213 6.20996 15.7736 6.49552 15.7596H17.6153C17.792 15.7596 17.9615 15.6902 18.0864 15.5666C18.2114 15.4429 18.2816 15.2753 18.2816 15.1005C18.2816 14.9256 18.2114 14.758 18.0864 14.6344C17.9615 14.5107 17.792 14.4413 17.6153 14.4413H6.38892C6.3122 14.4387 6.23745 14.4166 6.17189 14.3771C6.10634 14.3375 6.05219 14.282 6.01468 14.2157C5.97717 14.1494 5.95757 14.0747 5.95777 13.9988C5.95797 13.9228 5.97796 13.8482 6.01582 13.7821L7.62149 12.4638H17.9085C18.0625 12.4675 18.213 12.4183 18.3345 12.3246C18.456 12.2308 18.5409 12.0983 18.5747 11.9497L20.6867 3.69883C20.707 3.60056 20.7043 3.49901 20.6789 3.40191C20.6535 3.30482 20.6061 3.21474 20.5402 3.13853Z" fill="#2A5275"/>
<path fill-rule="evenodd" clip-rule="evenodd" d="M20.0272 2.89464C20.1256 2.89529 20.2226 2.91749 20.3113 2.95966C20.4 3.00183 20.4782 3.06292 20.5402 3.13853C20.6061 3.21474 20.6535 3.30482 20.6789 3.40191C20.7043 3.49901 20.707 3.60056 20.6867 3.69883L18.5747 11.9497C18.5409 12.0983 18.456 12.2308 18.3345 12.3246C18.213 12.4183 18.0625 12.4675 17.9085 12.4638H7.62149L6.01582 13.7821C5.97796 13.8482 5.95797 13.9228 5.95777 13.9988C5.95757 14.0747 5.97717 14.1494 6.01468 14.2157C6.05219 14.282 6.10634 14.3375 6.17189 14.3771C6.23745 14.4166 6.3122 14.4387 6.38892 14.4413H17.6153C17.792 14.4413 17.9615 14.5107 18.0864 14.6344C18.2114 14.758 18.2816 14.9256 18.2816 15.1005C18.2816 15.2753 18.2114 15.4429 18.0864 15.5666C17.9615 15.6902 17.792 15.7596 17.6153 15.7596H6.49552C6.20996 15.7736 5.92505 15.7213 5.66359 15.6068C5.40213 15.4924 5.17138 15.319 4.98978 15.1005C4.7345 14.78 4.60016 14.3816 4.60988 13.9737C4.61961 13.5658 4.77281 13.174 5.04308 12.8659L5.1297 12.7802L6.22236 11.8969L3.16425 3.31651L0.772393 2.59143C0.602759 2.53985 0.46078 2.42372 0.377691 2.26858C0.294601 2.11344 0.277206 1.932 0.329333 1.76417C0.38146 1.59634 0.498839 1.45588 0.655647 1.37367C0.733291 1.33297 0.818278 1.30779 0.905756 1.29958C0.993233 1.29137 1.08149 1.30029 1.16548 1.32583L3.89713 2.15638C3.99992 2.18741 4.09359 2.24259 4.17016 2.31719C4.24673 2.3918 4.30392 2.48363 4.33685 2.58484L7.38164 11.1455H17.3755L19.1544 4.21298H18.0661C17.7813 4.21298 17.5287 4.03009 17.4398 3.75953C17.2998 3.33323 17.6174 2.89464 18.0661 2.89464H20.0272ZM18.7805 4.5096H18.0631C17.6501 4.5096 17.2839 4.24441 17.155 3.8521C16.9519 3.23397 17.4124 2.59802 18.0631 2.59802H20.0291C20.1718 2.59896 20.3125 2.63116 20.4412 2.6923C20.5686 2.75289 20.681 2.8404 20.7705 2.94866C20.8648 3.05852 20.9327 3.18807 20.9692 3.32759C21.006 3.46838 21.0099 3.61562 20.9805 3.75811L20.9792 3.76435L18.8672 12.0148M18.7805 4.5096L17.135 10.8488H7.60136L4.62275 2.4955L4.62224 2.49393C4.57449 2.34718 4.49156 2.21403 4.38054 2.10585C4.26959 1.99775 4.13387 1.91778 3.98495 1.87276L1.25356 1.04229C1.13193 1.00531 1.00412 0.992396 0.877446 1.00428C0.750772 1.01617 0.627705 1.05263 0.515271 1.11157C0.288201 1.23061 0.118228 1.43402 0.0427445 1.67704C-0.0327391 1.92007 -0.00755033 2.18281 0.11277 2.40747C0.23309 2.63212 0.438685 2.80029 0.684326 2.87497L2.92591 3.5545L5.87513 11.7946L4.92834 12.5599L4.82359 12.6636L4.81664 12.6715C4.50064 13.0318 4.32153 13.4898 4.31015 13.9667C4.29878 14.4436 4.45585 14.9095 4.75432 15.2841L4.75821 15.2889C4.96952 15.5431 5.23803 15.7449 5.54228 15.8781C5.84417 16.0102 6.17293 16.0712 6.50264 16.0563H17.6153C17.8715 16.0563 18.1173 15.9556 18.2984 15.7763C18.4796 15.5971 18.5814 15.354 18.5814 15.1005C18.5814 14.847 18.4796 14.6039 18.2984 14.4246C18.1172 14.2454 17.8715 14.1447 17.6153 14.1447H6.39542C6.37154 14.1433 6.34835 14.1361 6.32789 14.1238C6.30637 14.1108 6.28859 14.0925 6.27627 14.0708C6.26395 14.049 6.25752 14.0245 6.25758 13.9995C6.25761 13.9881 6.25901 13.9767 6.26172 13.9657L7.72969 12.7604H17.9051C18.1271 12.7649 18.3438 12.6936 18.5189 12.5585C18.695 12.4226 18.8181 12.2303 18.8672 12.0148M9.18053 19.2203C9.18053 20.2032 8.37514 21 7.38164 21C6.38814 21 5.58275 20.2032 5.58275 19.2203C5.58275 18.2373 6.38814 17.4405 7.38164 17.4405C8.37514 17.4405 9.18053 18.2373 9.18053 19.2203ZM18.2882 19.2203C18.2882 20.2032 17.4828 21 16.4893 21C15.4958 21 14.6905 20.2032 14.6905 19.2203C14.6905 18.2373 15.4958 17.4405 16.4893 17.4405C17.4828 17.4405 18.2882 18.2373 18.2882 19.2203ZM7.38164 20.7034C8.20955 20.7034 8.88071 20.0394 8.88071 19.2203C8.88071 18.4011 8.20955 17.7371 7.38164 17.7371C6.55372 17.7371 5.88257 18.4011 5.88257 19.2203C5.88257 20.0394 6.55372 20.7034 7.38164 20.7034ZM16.4893 20.7034C17.3173 20.7034 17.9884 20.0394 17.9884 19.2203C17.9884 18.4011 17.3173 17.7371 16.4893 17.7371C15.6614 17.7371 14.9903 18.4011 14.9903 19.2203C14.9903 20.0394 15.6614 20.7034 16.4893 20.7034Z" fill="#2A5275"/>
<path d="M15.5 1L11.1875 5.5L9 3.68182" stroke="#2A5275" stroke-width="2" stroke-linecap="round" stroke-linejoin="round"/>
</svg>
