<svg xmlns="http://www.w3.org/2000/svg" xmlns:xlink="http://www.w3.org/1999/xlink" version="1.1" width="256" height="256" viewBox="0 0 256 256" xml:space="preserve">
<desc>Created with Fabric.js 1.7.22</desc>
<defs>
</defs>
<g transform="translate(128 128) scale(0.72 0.72)" style="">
	<g style="stroke: none; stroke-width: 0; stroke-dasharray: none; stroke-linecap: butt; stroke-linejoin: miter; stroke-miterlimit: 10; fill: none; fill-rule: nonzero; opacity: 1;" transform="translate(-175.05 -175.05000000000004) scale(3.89 3.89)" >
	<path d="M 70.034 75.963 H 19.966 C 8.957 75.963 0 67.006 0 55.997 c 0 -10.25 7.764 -18.721 17.719 -19.84 C 20.396 23.382 31.704 14.038 45 14.038 c 13.297 0 24.605 9.345 27.281 22.119 C 82.236 37.276 90 45.747 90 55.997 C 90 67.006 81.043 75.963 70.034 75.963 z M 19.966 42.031 C 12.265 42.031 6 48.296 6 55.997 s 6.265 13.966 13.966 13.966 h 50.068 C 77.735 69.963 84 63.698 84 55.997 s -6.265 -13.966 -13.966 -13.966 h -0.323 c -1.523 0 -2.805 -1.142 -2.98 -2.655 C 65.455 28.352 56.113 20.038 45 20.038 c -11.112 0 -20.455 8.314 -21.731 19.338 c -0.175 1.514 -1.457 2.655 -2.98 2.655 H 19.966 z" style="stroke: none; stroke-width: 1; stroke-dasharray: none; stroke-linecap: butt; stroke-linejoin: miter; stroke-miterlimit: 10; fill: rgb(97,121,242); fill-rule: nonzero; opacity: 1;" transform=" matrix(1 0 0 1 0 0) " stroke-linecap="round" />
	<path d="M 55.213 64.222 c -0.768 0 -1.535 -0.293 -2.121 -0.879 L 32.667 42.917 c -1.172 -1.171 -1.172 -3.071 0 -4.242 c 1.171 -1.172 3.071 -1.172 4.242 0 l 20.425 20.425 c 1.172 1.171 1.172 3.071 0 4.242 C 56.748 63.929 55.98 64.222 55.213 64.222 z" style="stroke: none; stroke-width: 1; stroke-dasharray: none; stroke-linecap: butt; stroke-linejoin: miter; stroke-miterlimit: 10; fill: rgb(232,96,96); fill-rule: nonzero; opacity: 1;" transform=" matrix(1 0 0 1 0 0) " stroke-linecap="round" />
	<path d="M 34.788 64.222 c -0.768 0 -1.536 -0.293 -2.121 -0.879 c -1.172 -1.171 -1.172 -3.071 0 -4.242 l 20.425 -20.425 c 1.172 -1.172 3.07 -1.172 4.242 0 c 1.172 1.171 1.172 3.071 0 4.242 L 36.909 63.343 C 36.323 63.929 35.555 64.222 34.788 64.222 z" style="stroke: none; stroke-width: 1; stroke-dasharray: none; stroke-linecap: butt; stroke-linejoin: miter; stroke-miterlimit: 10; fill: rgb(232,96,96); fill-rule: nonzero; opacity: 1;" transform=" matrix(1 0 0 1 0 0) " stroke-linecap="round" />
</g>
</g>
</svg>